<?xml version="1.0" encoding="UTF-8" standalone="no"?>
<!-- Created with Inkscape (http://www.inkscape.org/) -->
<svg
   xmlns:dc="http://purl.org/dc/elements/1.1/"
   xmlns:cc="http://web.resource.org/cc/"
   xmlns:rdf="http://www.w3.org/1999/02/22-rdf-syntax-ns#"
   xmlns:svg="http://www.w3.org/2000/svg"
   xmlns="http://www.w3.org/2000/svg"
   xmlns:sodipodi="http://sodipodi.sourceforge.net/DTD/sodipodi-0.dtd"
   xmlns:inkscape="http://www.inkscape.org/namespaces/inkscape"
   width="800"
   height="800"
   id="svg6253"
   sodipodi:version="0.32"
   inkscape:version="0.45.1"
   version="1.0"
   sodipodi:docbase="/home/eduardo/learn/inkspace"
   sodipodi:docname="doit-text-sq.svg"
   inkscape:output_extension="org.inkscape.output.svg.inkscape"
   inkscape:export-filename="/home/eduardo/learn/inkspace/doit-brand.png"
   inkscape:export-xdpi="21.6"
   inkscape:export-ydpi="21.6">
  <defs
     id="defs6255">
    <linearGradient
       id="linearGradient7278">
      <stop
         style="stop-color:#ff3232;stop-opacity:1;"
         offset="0"
         id="stop7280" />
      <stop
         style="stop-color:#ffd5d5;stop-opacity:0;"
         offset="1"
         id="stop7282" />
    </linearGradient>
  </defs>
  <sodipodi:namedview
     id="base"
     pagecolor="#ffffff"
     bordercolor="#666666"
     borderopacity="1.0"
     gridtolerance="10000"
     guidetolerance="10"
     objecttolerance="10"
     inkscape:pageopacity="0.0"
     inkscape:pageshadow="2"
     inkscape:zoom="0.21478368"
     inkscape:cx="397.39066"
     inkscape:cy="397.23088"
     inkscape:document-units="px"
     inkscape:current-layer="layer1"
     width="800px"
     height="800px"
     gridspacingx="10px"
     gridspacingy="10px"
     inkscape:grid-bbox="false"
     inkscape:grid-points="true"
     showgrid="false"
     inkscape:object-nodes="true"
     showguides="false"
     inkscape:guide-bbox="true"
     inkscape:object-paths="false"
     inkscape:window-width="1024"
     inkscape:window-height="697"
     inkscape:window-x="0"
     inkscape:window-y="25">
    <sodipodi:guide
       orientation="vertical"
       position="150"
       id="guide7244" />
    <sodipodi:guide
       orientation="vertical"
       position="230"
       id="guide7246" />
    <sodipodi:guide
       orientation="vertical"
       position="315"
       id="guide7248" />
    <sodipodi:guide
       orientation="vertical"
       position="-94.280904"
       id="guide7250" />
  </sodipodi:namedview>
  <metadata
     id="metadata6258">
    <rdf:RDF>
      <cc:Work
         rdf:about="">
        <dc:format>image/svg+xml</dc:format>
        <dc:type
           rdf:resource="http://purl.org/dc/dcmitype/StillImage" />
      </cc:Work>
    </rdf:RDF>
  </metadata>
  <g
     inkscape:label="Layer 1"
     inkscape:groupmode="layer"
     id="layer1">
    <path
       style="opacity:1;fill:#ff1e1e;fill-opacity:1;stroke:#000000;stroke-width:0.35095182;stroke-miterlimit:4;stroke-dasharray:none;stroke-opacity:1"
       d="M 78.289282,137.41858 C 30.64305,153.6181 9.5080717,218.33809 31.113014,281.88282 C 52.717957,345.42756 108.92181,383.85266 156.56805,367.65315 C 204.21429,351.45363 225.34927,286.73365 203.74432,223.18891 C 182.13938,159.64417 125.93552,121.21906 78.289282,137.41858 z M 84.812516,156.6048 C 124.51772,143.1052 171.35426,175.12612 189.35838,228.08007 C 207.36249,281.03402 189.75002,334.96734 150.04482,348.46693 C 110.33962,361.96653 63.503079,329.94561 45.498963,276.99167 C 27.49484,224.03771 45.107317,170.1044 84.812516,156.6048 z M 95.249685,187.30274 C 68.250149,196.48247 56.273665,233.15713 68.516464,269.16581 C 80.75926,305.1745 112.60811,326.94872 139.60765,317.76899 C 166.60719,308.58927 178.58367,271.91461 166.34088,235.90593 C 154.09808,199.89724 122.24922,178.12301 95.249685,187.30274 z M 102.33554,208.14377 C 120.70778,201.89728 142.38335,216.7163 150.71414,241.21895 C 159.04494,265.72159 150.89403,290.68149 132.52179,296.92797 C 114.14956,303.17446 92.47399,288.35543 84.143193,263.85279 C 75.8124,239.35014 83.963308,214.39025 102.33554,208.14377 z M 109.3154,228.67302 C 99.439755,232.03069 95.058095,245.44831 99.536156,258.61925 C 104.01422,271.79018 115.66629,279.75639 125.54194,276.39872 C 135.41759,273.04105 139.79925,259.62343 135.32119,246.45249 C 130.84312,233.28155 119.19105,225.31534 109.3154,228.67302 z "
       id="path7236" />
    <path
       style="font-size:720px;font-style:normal;font-weight:bold;fill:#241c1c;fill-opacity:1;stroke:none;stroke-width:1px;stroke-linecap:butt;stroke-linejoin:miter;stroke-opacity:1;font-family:Purisa"
       d="M 267.45008,171.43124 C 281.53355,169.40925 291.71271,168.34601 297.98759,168.2415 C 304.4023,167.98572 311.79381,168.42092 320.16214,169.54708 C 350.69588,173.58578 370.85787,181.17763 380.64816,192.32264 C 390.58393,203.46214 393.89147,222.31312 390.57079,248.87561 C 388.02601,269.27438 379.5187,288.45074 365.04884,306.40474 C 350.57289,324.21303 334.31033,335.66756 316.26112,340.7684 C 310.19599,342.47062 306.74919,345.74763 305.9207,350.59945 C 305.09205,355.45124 302.41801,357.96731 297.89857,358.14765 C 293.37899,358.32797 291.08434,357.54338 291.0146,355.79391 C 290.93891,353.89862 288.98546,352.51633 285.15425,351.64705 C 281.76611,350.90609 279.76904,348.43038 279.16303,344.21991 C 278.70269,340.00361 280.05008,337.17543 283.20518,335.73533 C 285.64284,334.61591 286.74263,329.2422 286.50457,319.61419 C 286.41216,309.98041 285.07497,298.42496 282.49298,284.94782 C 280.16137,274.08921 277.22703,255.44238 273.68996,229.00729 L 268.68147,191.31421 L 260.83495,192.28439 C 255.31814,193.08874 250.53305,195.76205 246.47966,200.30432 C 243.68598,203.48241 241.71181,205.24043 240.55713,205.57841 C 239.39661,205.77087 237.75219,204.81432 235.62388,202.70876 C 233.65297,200.88925 232.56555,199.25338 232.3616,197.80115 C 232.15181,196.20341 232.65354,194.13908 233.86677,191.60813 C 235.73913,187.29892 237.76875,185.10061 239.95562,185.0132 C 241.85088,184.93774 243.96794,183.10099 246.30679,179.50297 C 248.49981,175.91109 255.54757,173.22052 267.45008,171.43124 M 334.50596,188.68785 C 319.0815,186.38297 306.70403,185.4166 297.37352,185.78873 C 291.25024,186.0332 287.62583,186.68889 286.50029,187.7558 C 284.53478,189.73268 284.43498,196.38069 286.20088,207.69986 C 286.62619,211.04154 287.96375,218.94641 290.21356,231.41448 C 294.35161,254.6131 297.29485,271.65332 299.04332,282.5352 C 301.45623,295.435 302.23371,305.77158 301.37576,313.54498 L 300.07127,324.76777 L 311.88032,324.2966 C 324.85558,323.77891 339.21396,314.00658 354.95548,294.97962 C 369.71693,277.01399 376.82487,255.70313 376.27932,231.04697 C 376.0294,221.12751 375.40607,214.65437 374.40932,211.62754 C 373.55806,208.59516 371.15289,205.04056 367.19378,200.96373 C 363.69504,197.4529 359.79687,194.90702 355.49927,193.32607 C 351.20141,191.74543 344.20365,190.19936 334.50596,188.68785 M 484.42309,210.52355 C 511.41208,206.23433 527.94129,210.6126 534.0108,223.65838 C 537.65472,230.81423 539.31876,239.5822 539.00293,249.96233 C 538.82683,260.19101 537.48163,270.39326 534.9673,280.56909 C 532.59272,290.59342 528.80706,300.01691 523.61034,308.83957 C 518.5592,317.65646 512.90481,324.16104 506.64717,328.35333 C 495.70043,335.79919 483.71324,339.12491 470.68559,338.33051 C 457.80943,337.67608 447.40341,333.05349 439.46749,324.46274 C 432.90762,317.42336 428.58117,311.46304 426.48814,306.58175 C 424.38926,301.55473 423.15368,294.37591 422.7814,285.04526 C 422.07753,267.40466 428.52596,251.52295 442.12669,237.40008 C 450.54252,228.74111 457.88222,222.38832 464.14582,218.3417 C 470.5551,214.2895 477.31418,211.68345 484.42309,210.52355 M 520.45172,229.67523 C 513.67,224.39706 506.80348,222.4807 499.85215,223.92612 C 495.95062,224.95804 490.58547,225.90222 483.75665,226.75867 C 478.683,227.69133 474.6474,229.02052 471.64985,230.74627 C 468.79215,232.32062 465.18792,235.31187 460.83715,239.72003 C 452.56122,248.22759 446.7405,256.05301 443.37498,263.19631 C 440.00358,270.19396 438.48078,277.77489 438.80655,285.93911 C 439.28934,298.03977 443.40255,307.80519 451.14621,315.2354 C 459.03557,322.65984 468.9606,326.20645 480.92131,325.87523 C 492.14711,325.42733 502.21028,317.7977 511.11089,302.9863 C 520.15128,288.02336 525.08945,270.8877 525.9254,251.57928 C 526.20014,243.82921 525.99945,238.79943 525.32334,236.48995 C 524.78696,234.02907 523.16312,231.75749 520.45172,229.67523 M 613.87904,159.14211 C 616.17674,158.17447 621.77511,157.58604 630.67424,157.37682 C 639.5732,157.16795 645.13361,157.45717 647.35545,158.24448 C 648.39332,158.64131 649.37877,159.55114 650.3118,160.97397 C 651.2446,162.39715 651.73723,163.7647 651.7897,165.07665 C 651.89429,167.70105 650.7336,169.71867 648.30762,171.12951 C 645.87564,172.39488 641.10526,173.60737 633.99651,174.76699 L 627.47083,175.9035 L 629.42643,213.93742 C 630.82315,241.6261 632.41302,263.17401 634.19603,278.58122 C 635.35535,289.34068 636.28772,296.23956 636.99313,299.27786 C 637.83833,302.16461 638.96376,302.92284 640.3694,301.55252 C 643.04044,298.96359 646.29164,298.10376 650.12301,298.97302 C 653.95417,299.84234 655.9338,301.88068 656.06189,305.08805 C 656.18974,308.29547 653.90638,311.45305 649.21172,314.5608 C 644.51106,317.5228 635.5562,321.82271 622.34714,327.46053 C 615.02229,330.52722 609.69202,332.34615 606.35634,332.91731 C 603.02055,333.48847 598.99094,333.13817 594.26754,331.86641 C 589.99304,330.86877 587.02778,329.7459 585.37176,328.49776 C 583.71568,327.24964 582.84694,325.60504 582.76553,323.56397 C 582.67824,321.37712 583.20324,319.89594 584.34051,319.12044 C 585.47771,318.34497 587.72293,317.89033 591.07615,317.75652 C 596.17876,317.55294 602.59955,315.6175 610.33852,311.95018 L 621.07213,306.48413 L 617.47229,265.66837 C 615.07234,238.45796 613.55537,216.90714 612.92137,201.01584 L 611.98775,177.61644 L 605.71566,179.61897 C 599.51641,181.61873 593.57971,182.87776 587.90556,183.39606 C 582.23134,183.91465 577.98596,183.64597 575.16942,182.59002 C 572.34702,181.38858 571.54536,179.59528 572.76442,177.21013 C 573.56934,175.42589 580.22645,172.0938 592.73575,167.21384 C 606.39967,161.9961 613.44743,159.30552 613.87904,159.14211 M 723.77838,125.4066 C 724.21608,121.73877 725.57802,119.27505 727.86419,118.01545 C 730.15022,116.75626 732.07168,117.3367 733.62856,119.75676 C 734.57303,121.47155 736.07075,131.56037 738.12164,150.02324 C 740.18415,168.77804 741.44281,178.36531 741.89769,178.78508 C 742.35243,179.20515 746.0468,178.47365 752.98087,176.59059 C 759.62898,174.86525 765.22156,174.13104 769.75856,174.38793 C 774.44124,174.63931 777.04494,175.84963 777.56967,178.01889 C 777.93674,179.90268 776.40581,181.78905 772.97673,183.678 C 769.54159,185.42145 763.20539,187.64556 753.9679,190.35036 L 743.13832,193.41087 L 745.92506,230.31645 C 747.79441,255.21182 750.09584,276.29328 752.82912,293.56088 C 754.01216,301.25291 754.81636,306.76968 755.24181,310.11121 C 755.66711,313.45278 756.08956,316.72143 756.50916,319.91718 C 756.92285,322.96715 757.0014,324.93533 756.74473,325.82171 C 756.488,326.70808 756.15264,327.45157 755.7386,328.05219 C 755.47018,328.64699 754.90446,329.10762 754.04145,329.43411 C 750.89213,331.01999 748.20396,329.52099 745.97681,324.93714 C 743.74951,320.35328 742.46433,313.76053 742.12114,305.15887 C 741.75464,295.97409 740.56904,284.55861 738.56441,270.91242 C 737.40461,263.80364 735.49327,248.83957 732.83062,226.02017 C 731.11202,208.56612 729.87367,199.48911 729.11573,198.78911 C 728.50924,198.22935 722.56384,199.26969 711.27942,201.91015 C 702.17023,204.17202 696.15191,205.21527 693.22446,205.03991 C 690.2912,204.719 688.76349,203.02768 688.64133,199.96596 C 688.55408,197.77923 690.51953,195.80251 694.53767,194.03581 C 698.55002,192.12358 705.691,189.94036 715.96073,187.48615 C 721.31423,186.25053 724.84246,185.01458 726.54545,183.77831 C 729.53141,181.76102 729.20311,169.87327 725.56056,148.11504 C 723.8354,137.81644 723.24139,130.24697 723.77838,125.4066"
       id="text8280" />
    <path
       style="fill:none;fill-rule:evenodd;stroke:#000000;stroke-width:10;stroke-linecap:butt;stroke-linejoin:miter;stroke-opacity:1;stroke-miterlimit:4;stroke-dasharray:none"
       d="M 125.10288,423.04527 C 553.08642,375.30864 1024.6107,427.69214 569.54733,452.67489 C 116.20904,477.65329 102.83688,497.45735 248.55967,497.11934 C 516.05592,496.49887 808.23046,480.65844 398.35391,534.97943 C -11.522634,589.30042 365.7771,564.47615 401.64608,564.60906 C 650.82909,565.52626 505.3498,584.36214 362.13992,612.34568 C 238.68313,630.45268 406.58436,641.97531 406.58436,641.97531"
       id="path11343"
       sodipodi:nodetypes="csssscc" />
  </g>
</svg>
