<?xml version="1.0" encoding="UTF-8" standalone="no"?>
<!-- Created with Inkscape (http://www.inkscape.org/) -->
<svg
   xmlns:dc="http://purl.org/dc/elements/1.1/"
   xmlns:cc="http://creativecommons.org/ns#"
   xmlns:rdf="http://www.w3.org/1999/02/22-rdf-syntax-ns#"
   xmlns:svg="http://www.w3.org/2000/svg"
   xmlns="http://www.w3.org/2000/svg"
   xmlns:sodipodi="http://sodipodi.sourceforge.net/DTD/sodipodi-0.dtd"
   xmlns:inkscape="http://www.inkscape.org/namespaces/inkscape"
   width="2500"
   height="300"
   id="svg6253"
   sodipodi:version="0.32"
   inkscape:version="0.46"
   version="1.0"
   sodipodi:docbase="/home/eduardo/learn/inkspace"
   sodipodi:docname="doit-text-full.svg"
   inkscape:output_extension="org.inkscape.output.svg.inkscape"
   inkscape:export-filename="/home/eduardo/Desktop/doit.png"
   inkscape:export-xdpi="21.246025"
   inkscape:export-ydpi="21.246025">
  <defs
     id="defs6255">
    <inkscape:perspective
       sodipodi:type="inkscape:persp3d"
       inkscape:vp_x="0 : 150 : 1"
       inkscape:vp_y="0 : 1000 : 0"
       inkscape:vp_z="800 : 150 : 1"
       inkscape:persp3d-origin="400 : 100 : 1"
       id="perspective2470" />
    <linearGradient
       id="linearGradient7278">
      <stop
         style="stop-color:#ff3232;stop-opacity:1;"
         offset="0"
         id="stop7280" />
      <stop
         style="stop-color:#ffd5d5;stop-opacity:0;"
         offset="1"
         id="stop7282" />
    </linearGradient>
  </defs>
  <sodipodi:namedview
     id="base"
     pagecolor="#ffffff"
     bordercolor="#666666"
     borderopacity="1.0"
     gridtolerance="10000"
     guidetolerance="10"
     objecttolerance="10"
     inkscape:pageopacity="0.0"
     inkscape:pageshadow="2"
     inkscape:zoom="0.3712"
     inkscape:cx="1250"
     inkscape:cy="150"
     inkscape:document-units="px"
     inkscape:current-layer="layer1"
     width="800px"
     height="300px"
     inkscape:grid-bbox="false"
     inkscape:grid-points="true"
     showgrid="false"
     inkscape:object-nodes="true"
     showguides="false"
     inkscape:guide-bbox="true"
     inkscape:object-paths="false"
     inkscape:window-width="1024"
     inkscape:window-height="697"
     inkscape:window-x="0"
     inkscape:window-y="25">
    <sodipodi:guide
       orientation="vertical"
       position="150"
       id="guide7244" />
    <sodipodi:guide
       orientation="vertical"
       position="230"
       id="guide7246" />
    <sodipodi:guide
       orientation="vertical"
       position="315"
       id="guide7248" />
    <sodipodi:guide
       orientation="vertical"
       position="-94.280904"
       id="guide7250" />
    <inkscape:grid
       id="GridFromPre046Settings"
       type="xygrid"
       originx="0px"
       originy="0px"
       spacingx="10px"
       spacingy="10px"
       color="#0000ff"
       empcolor="#0000ff"
       opacity="0.2"
       empopacity="0.4"
       empspacing="5"
       visible="true"
       enabled="true" />
  </sodipodi:namedview>
  <metadata
     id="metadata6258">
    <rdf:RDF>
      <cc:Work
         rdf:about="">
        <dc:format>image/svg+xml</dc:format>
        <dc:type
           rdf:resource="http://purl.org/dc/dcmitype/StillImage" />
      </cc:Work>
    </rdf:RDF>
  </metadata>
  <g
     inkscape:label="Layer 1"
     inkscape:groupmode="layer"
     id="layer1">
    <path
       style="opacity:1;fill:#ff1e1e;fill-opacity:1;stroke:#000000;stroke-width:0.35095182;stroke-miterlimit:4;stroke-dasharray:none;stroke-opacity:1"
       d="M 78.289282,45.237513 C 30.64305,61.437032 9.5080717,126.15702 31.113014,189.70175 C 52.717957,253.24649 108.92181,291.67159 156.56805,275.47208 C 204.21429,259.27256 225.34927,194.55258 203.74432,131.00784 C 182.13938,67.463105 125.93552,29.037994 78.289282,45.237513 z M 84.812516,64.42373 C 124.51772,50.92413 171.35426,82.945053 189.35838,135.899 C 207.36249,188.85295 189.75002,242.78627 150.04482,256.28586 C 110.33962,269.78546 63.503079,237.76454 45.498963,184.8106 C 27.49484,131.85664 45.107317,77.923328 84.812516,64.42373 z M 95.249685,95.121667 C 68.250149,104.3014 56.273665,140.97606 68.516464,176.98474 C 80.75926,212.99343 112.60811,234.76765 139.60765,225.58792 C 166.60719,216.4082 178.58367,179.73354 166.34088,143.72486 C 154.09808,107.71617 122.24922,85.941943 95.249685,95.121667 z M 102.33554,115.9627 C 120.70778,109.71621 142.38335,124.53523 150.71414,149.03788 C 159.04494,173.54052 150.89403,198.50042 132.52179,204.7469 C 114.14956,210.99339 92.47399,196.17436 84.143193,171.67172 C 75.8124,147.16907 83.963308,122.20918 102.33554,115.9627 z M 109.3154,136.49195 C 99.439755,139.84962 95.058095,153.26724 99.536156,166.43818 C 104.01422,179.60911 115.66629,187.57532 125.54194,184.21765 C 135.41759,180.85998 139.79925,167.44236 135.32119,154.27142 C 130.84312,141.10048 119.19105,133.13427 109.3154,136.49195 z"
       id="path7236" />
    <path
       style="font-size:720px;font-style:normal;font-weight:bold;fill:#241c1c;fill-opacity:1;stroke:none;stroke-width:1px;stroke-linecap:butt;stroke-linejoin:miter;stroke-opacity:1;font-family:Purisa"
       d="M 267.45008,79.250166 C 281.53355,77.228185 291.71271,76.164941 297.98759,76.060426 C 304.4023,75.804655 311.79381,76.239848 320.16214,77.366012 C 350.69588,81.404713 370.85787,88.996558 380.64816,100.14157 C 390.58393,111.28107 393.89147,130.13205 390.57079,156.69454 C 388.02601,177.09331 379.5187,196.26967 365.04884,214.22367 C 350.57289,232.03196 334.31033,243.48649 316.26112,248.58733 C 310.19599,250.28955 306.74919,253.56656 305.9207,258.41838 C 305.09205,263.27017 302.41801,265.78624 297.89857,265.96658 C 293.37899,266.1469 291.08434,265.36231 291.0146,263.61284 C 290.93891,261.71755 288.98546,260.33526 285.15425,259.46598 C 281.76611,258.72502 279.76904,256.24931 279.16303,252.03884 C 278.70269,247.82254 280.05008,244.99436 283.20518,243.55426 C 285.64284,242.43484 286.74263,237.06113 286.50457,227.43312 C 286.41216,217.79934 285.07497,206.24389 282.49298,192.76675 C 280.16137,181.90814 277.22703,163.26131 273.68996,136.82622 L 268.68147,99.133141 L 260.83495,100.10332 C 255.31814,100.90767 250.53305,103.58098 246.47966,108.12325 C 243.68598,111.30134 241.71181,113.05936 240.55713,113.39734 C 239.39661,113.5898 237.75219,112.63325 235.62388,110.52769 C 233.65297,108.70818 232.56555,107.07231 232.3616,105.62008 C 232.15181,104.02234 232.65354,101.95801 233.86677,99.427061 C 235.73913,95.117853 237.76875,92.919543 239.95562,92.83213 C 241.85088,92.756671 243.96794,90.919925 246.30679,87.321901 C 248.49981,83.730022 255.54757,81.039446 267.45008,79.250166 M 334.50596,96.506777 C 319.0815,94.201902 306.70403,93.23553 297.37352,93.607661 C 291.25024,93.85213 287.62583,94.507825 286.50029,95.574731 C 284.53478,97.551609 284.43498,104.19962 286.20088,115.51879 C 286.62619,118.86047 287.96375,126.76534 290.21356,139.23341 C 294.35161,162.43203 297.29485,179.47225 299.04332,190.35413 C 301.45623,203.25393 302.23371,213.59051 301.37576,221.36391 L 300.07127,232.5867 L 311.88032,232.11553 C 324.85558,231.59784 339.21396,221.82551 354.95548,202.79855 C 369.71693,184.83292 376.82487,163.52206 376.27932,138.8659 C 376.0294,128.94644 375.40607,122.4733 374.40932,119.44647 C 373.55806,116.41409 371.15289,112.85949 367.19378,108.78266 C 363.69504,105.27183 359.79687,102.72595 355.49927,101.145 C 351.20141,99.56436 344.20365,98.018288 334.50596,96.506777 M 484.42309,118.34248 C 511.41208,114.05326 527.94129,118.43153 534.0108,131.47731 C 537.65472,138.63316 539.31876,147.40113 539.00293,157.78126 C 538.82683,168.00994 537.48163,178.21219 534.9673,188.38802 C 532.59272,198.41235 528.80706,207.83584 523.61034,216.6585 C 518.5592,225.47539 512.90481,231.97997 506.64717,236.17226 C 495.70043,243.61812 483.71324,246.94384 470.68559,246.14944 C 457.80943,245.49501 447.40341,240.87242 439.46749,232.28167 C 432.90762,225.24229 428.58117,219.28197 426.48814,214.40068 C 424.38926,209.37366 423.15368,202.19484 422.7814,192.86419 C 422.07753,175.22359 428.52596,159.34188 442.12669,145.21901 C 450.54252,136.56004 457.88222,130.20725 464.14582,126.16063 C 470.5551,122.10843 477.31418,119.50238 484.42309,118.34248 M 520.45172,137.49416 C 513.67,132.21599 506.80348,130.29963 499.85215,131.74505 C 495.95062,132.77697 490.58547,133.72115 483.75665,134.5776 C 478.683,135.51026 474.6474,136.83945 471.64985,138.5652 C 468.79215,140.13955 465.18792,143.1308 460.83715,147.53896 C 452.56122,156.04652 446.7405,163.87194 443.37498,171.01524 C 440.00358,178.01289 438.48078,185.59382 438.80655,193.75804 C 439.28934,205.8587 443.40255,215.62412 451.14621,223.05433 C 459.03557,230.47877 468.9606,234.02538 480.92131,233.69416 C 492.14711,233.24626 502.21028,225.61663 511.11089,210.80523 C 520.15128,195.84229 525.08945,178.70663 525.9254,159.39821 C 526.20014,151.64814 525.99945,146.61836 525.32334,144.30888 C 524.78696,141.848 523.16312,139.57642 520.45172,137.49416 M 613.87904,66.961041 C 616.17674,65.993397 621.77511,65.404968 630.67424,65.195749 C 639.5732,64.986878 645.13361,65.276099 647.35545,66.063415 C 648.39332,66.460239 649.37877,67.370069 650.3118,68.792902 C 651.2446,70.216076 651.73723,71.583633 651.7897,72.895582 C 651.89429,75.519978 650.7336,77.537596 648.30762,78.948438 C 645.87564,80.213811 641.10526,81.426302 633.99651,82.585923 L 627.47083,83.722431 L 629.42643,121.75635 C 630.82315,149.44503 632.41302,170.99294 634.19603,186.40015 C 635.35535,197.15961 636.28772,204.05849 636.99313,207.09679 C 637.83833,209.98354 638.96376,210.74177 640.3694,209.37145 C 643.04044,206.78252 646.29164,205.92269 650.12301,206.79195 C 653.95417,207.66127 655.9338,209.69961 656.06189,212.90698 C 656.18974,216.1144 653.90638,219.27198 649.21172,222.37973 C 644.51106,225.34173 635.5562,229.64164 622.34714,235.27946 C 615.02229,238.34615 609.69202,240.16508 606.35634,240.73624 C 603.02055,241.3074 598.99094,240.9571 594.26754,239.68534 C 589.99304,238.6877 587.02778,237.56483 585.37176,236.31669 C 583.71568,235.06857 582.84694,233.42397 582.76553,231.3829 C 582.67824,229.19605 583.20324,227.71487 584.34051,226.93937 C 585.47771,226.1639 587.72293,225.70926 591.07615,225.57545 C 596.17876,225.37187 602.59955,223.43643 610.33852,219.76911 L 621.07213,214.30306 L 617.47229,173.4873 C 615.07234,146.27689 613.55537,124.72607 612.92137,108.83477 L 611.98775,85.435371 L 605.71566,87.437897 C 599.51641,89.437664 593.57971,90.696695 587.90556,91.21499 C 582.23134,91.733581 577.98596,91.464902 575.16942,90.408952 C 572.34702,89.207509 571.54536,87.41421 572.76442,85.029056 C 573.56934,83.244823 580.22645,79.912732 592.73575,75.032775 C 606.39967,69.81503 613.44743,67.124452 613.87904,66.961041 M 723.77838,33.225528 C 724.21608,29.557697 725.57802,27.093984 727.86419,25.834381 C 730.15022,24.575194 732.07168,25.15563 733.62856,27.575693 C 734.57303,29.290483 736.07075,39.379297 738.12164,57.842166 C 740.18415,76.596966 741.44281,86.184239 741.89769,86.604012 C 742.35243,87.024078 746.0468,86.292582 752.98087,84.409525 C 759.62898,82.684185 765.22156,81.949968 769.75856,82.206861 C 774.44124,82.458239 777.04494,83.668558 777.56967,85.837817 C 777.93674,87.721608 776.40581,89.607976 772.97673,91.496928 C 769.54159,93.240377 763.20539,95.464489 753.9679,98.169292 L 743.13832,101.2298 L 745.92506,138.13538 C 747.79441,163.03075 750.09584,184.11221 752.82912,201.37981 C 754.01216,209.07184 754.81636,214.58861 755.24181,217.93014 C 755.66711,221.27171 756.08956,224.54036 756.50916,227.73611 C 756.92285,230.78608 757.0014,232.75426 756.74473,233.64064 C 756.488,234.52701 756.15264,235.2705 755.7386,235.87112 C 755.47018,236.46592 754.90446,236.92655 754.04145,237.25304 C 750.89213,238.83892 748.20396,237.33992 745.97681,232.75607 C 743.74951,228.17221 742.46433,221.57946 742.12114,212.9778 C 741.75464,203.79302 740.56904,192.37754 738.56441,178.73135 C 737.40461,171.62257 735.49327,156.6585 732.83062,133.8391 C 731.11202,116.38505 729.87367,107.30804 729.11573,106.60804 C 728.50924,106.04828 722.56384,107.08862 711.27942,109.72908 C 702.17023,111.99095 696.15191,113.0342 693.22446,112.85884 C 690.2912,112.53793 688.76349,110.84661 688.64133,107.78489 C 688.55408,105.59816 690.51953,103.62144 694.53767,101.85474 C 698.55002,99.942507 705.691,97.759293 715.96073,95.305081 C 721.31423,94.069457 724.84246,92.833513 726.54545,91.597241 C 729.53141,89.579949 729.20311,77.692202 725.56056,55.933971 C 723.8354,45.635373 723.24139,38.0659 723.77838,33.225528"
       id="text8280" />
    <text
       xml:space="preserve"
       style="font-size:40px;font-style:normal;font-weight:normal;fill:#000000;fill-opacity:1;stroke:none;stroke-width:1px;stroke-linecap:butt;stroke-linejoin:miter;stroke-opacity:1;font-family:Bitstream Vera Sans"
       x="762.13989"
       y="171.60493"
       id="text2472"><tspan
         sodipodi:role="line"
         id="tspan2474"
         x="762.13989"
         y="171.60493" /></text>
    <flowRoot
       xml:space="preserve"
       id="flowRoot2476"
       style="font-size:150px;font-style:normal;font-variant:normal;font-weight:300;font-stretch:normal;fill:#000000;fill-opacity:1;stroke:none;stroke-width:1px;stroke-linecap:butt;stroke-linejoin:miter;stroke-opacity:1;font-family:Purisa;-inkscape-font-specification:Purisa Light"
       transform="translate(933.00321,430.72352)"><flowRegion
         id="flowRegion2478"><rect
           id="rect2480"
           width="1524.2798"
           height="186.00822"
           x="0"
           y="-315.63785"
           style="font-size:150px;font-style:normal;font-variant:normal;font-weight:300;font-stretch:normal;font-family:Purisa;-inkscape-font-specification:Purisa Light" /></flowRegion><flowPara
         id="flowPara2484">Automation Tool</flowPara></flowRoot>    <flowRoot
       xml:space="preserve"
       id="flowRoot2488"
       style="font-size:40px;font-style:normal;font-weight:normal;fill:#000000;fill-opacity:1;stroke:none;stroke-width:1px;stroke-linecap:butt;stroke-linejoin:miter;stroke-opacity:1;font-family:Bitstream Vera Sans"><flowRegion
         id="flowRegion2490"><rect
           id="rect2492"
           width="42.798355"
           height="102.05761"
           x="-209.0535"
           y="-208.64197" /></flowRegion><flowPara
         id="flowPara2494"></flowPara></flowRoot>  </g>
</svg>
