<?xml version="1.0" encoding="UTF-8" standalone="no"?>
<!-- Created with Inkscape (http://www.inkscape.org/) -->

<svg
   xmlns:dc="http://purl.org/dc/elements/1.1/"
   xmlns:cc="http://creativecommons.org/ns#"
   xmlns:rdf="http://www.w3.org/1999/02/22-rdf-syntax-ns#"
   xmlns:svg="http://www.w3.org/2000/svg"
   xmlns="http://www.w3.org/2000/svg"
   xmlns:sodipodi="http://sodipodi.sourceforge.net/DTD/sodipodi-0.dtd"
   xmlns:inkscape="http://www.inkscape.org/namespaces/inkscape"
   width="800"
   height="800"
   id="svg6253"
   sodipodi:version="0.32"
   inkscape:version="0.92.2 (5c3e80d, 2017-08-06)"
   version="1.0"
   sodipodi:docname="doit-sq.svg"
   inkscape:output_extension="org.inkscape.output.svg.inkscape"
   inkscape:export-filename="/home/eduardo/Desktop/doit-brand-background.png"
   inkscape:export-xdpi="21.6"
   inkscape:export-ydpi="21.6">
  <defs
     id="defs6255">
    <linearGradient
       id="linearGradient7278">
      <stop
         style="stop-color:#ff3232;stop-opacity:1;"
         offset="0"
         id="stop7280" />
      <stop
         style="stop-color:#ffd5d5;stop-opacity:0;"
         offset="1"
         id="stop7282" />
    </linearGradient>
  </defs>
  <sodipodi:namedview
     id="base"
     pagecolor="#ffffff"
     bordercolor="#666666"
     borderopacity="1.0"
     gridtolerance="10000"
     guidetolerance="10"
     objecttolerance="10"
     inkscape:pageopacity="0"
     inkscape:pageshadow="2"
     inkscape:zoom="0.42956736"
     inkscape:cx="-59.809535"
     inkscape:cy="593.1052"
     inkscape:document-units="px"
     inkscape:current-layer="layer1"
     width="800px"
     height="800px"
     inkscape:grid-bbox="false"
     inkscape:grid-points="true"
     showgrid="false"
     inkscape:object-nodes="true"
     showguides="false"
     inkscape:guide-bbox="true"
     inkscape:object-paths="false"
     inkscape:window-width="1366"
     inkscape:window-height="680"
     inkscape:window-x="0"
     inkscape:window-y="27"
     inkscape:window-maximized="1"
     inkscape:pagecheckerboard="true">
    <sodipodi:guide
       orientation="vertical"
       position="150"
       id="guide7244"
       inkscape:locked="false" />
    <sodipodi:guide
       orientation="vertical"
       position="230"
       id="guide7246"
       inkscape:locked="false" />
    <sodipodi:guide
       orientation="vertical"
       position="315"
       id="guide7248"
       inkscape:locked="false" />
    <sodipodi:guide
       orientation="vertical"
       position="-94.280904"
       id="guide7250"
       inkscape:locked="false" />
    <inkscape:grid
       id="GridFromPre046Settings"
       type="xygrid"
       originx="0"
       originy="0"
       spacingx="10"
       spacingy="10"
       color="#3f3fff"
       empcolor="#3f3fff"
       opacity="0.15"
       empopacity="0.38"
       empspacing="5" />
  </sodipodi:namedview>
  <metadata
     id="metadata6258">
    <rdf:RDF>
      <cc:Work
         rdf:about="">
        <dc:format>image/svg+xml</dc:format>
        <dc:type
           rdf:resource="http://purl.org/dc/dcmitype/StillImage" />
        <dc:title></dc:title>
      </cc:Work>
    </rdf:RDF>
  </metadata>
  <g
     inkscape:label="Layer 1"
     inkscape:groupmode="layer"
     id="layer1">
    <ellipse
       style="fill:#ececec"
       id="path3148"
       cx="401.56683"
       cy="398.43317"
       rx="401.56683"
       ry="399.23889" />
    <path
       style="opacity:1;fill:#ff1e1e;fill-opacity:1;stroke:#000000;stroke-width:0.46967557;stroke-miterlimit:4;stroke-dasharray:none;stroke-opacity:1"
       d="m 344.94846,424.52209 c -62.53399,22.10626 -90.27291,110.42479 -61.91719,197.13951 28.35572,86.71474 102.1213,139.1506 164.6553,117.04434 62.534,-22.10627 90.27291,-110.42478 61.91719,-197.13951 -28.35573,-86.71475 -102.1213,-139.15062 -164.6553,-117.04434 z m 8.5615,26.18199 c 52.11169,-18.42189 113.58299,25.27466 137.21275,97.53695 23.62977,72.26228 0.51402,145.86103 -51.59765,164.28291 -52.11167,18.42189 -113.58297,-25.27465 -137.21274,-97.53693 -23.62977,-72.26229 -0.51403,-145.86103 51.59764,-164.28293 z m 13.69842,41.89118 c -35.43593,12.52688 -51.15464,62.57404 -35.0864,111.71239 16.06824,49.13836 57.86873,78.852 93.30467,66.32511 35.43594,-12.52687 51.15464,-62.57403 35.08641,-111.71238 -16.06824,-49.13835 -57.86874,-78.85201 -93.30468,-66.32512 z m 9.29994,28.44019 c 24.11292,-8.52412 52.56133,11.69829 63.4952,45.13521 10.93388,33.43692 0.2361,67.49782 -23.87682,76.02193 -24.1129,8.52412 -52.56131,-11.69831 -63.49519,-45.13522 -10.93387,-33.43693 -0.2361,-67.49782 23.87681,-76.02192 z m 9.16082,28.01473 c -12.96144,4.58196 -18.71221,22.89198 -12.83492,40.86537 5.87731,17.97338 21.17024,28.84427 34.13168,24.26231 12.96144,-4.58196 18.71221,-22.89198 12.83492,-40.86537 -5.87731,-17.9734 -21.17024,-28.84428 -34.13168,-24.26231 z"
       id="path7236"
       inkscape:connector-curvature="0" />
    <path
       style="font-style:normal;font-weight:bold;font-size:720px;font-family:Purisa;fill:#241c1c;fill-opacity:1;stroke:none;stroke-width:1px;stroke-linecap:butt;stroke-linejoin:miter;stroke-opacity:1"
       d="m 136.40833,190.18695 c 14.74483,-2.20107 25.40199,-3.35847 31.97153,-3.47225 6.71594,-0.27843 14.45455,0.19531 23.21585,1.42122 31.96758,4.39639 53.07635,12.66064 63.32639,24.79274 10.40235,12.1261 13.8652,32.64666 10.38859,61.56173 -2.66429,22.20544 -11.57108,43.08021 -26.72044,62.62436 -15.15572,19.38552 -32.18196,31.85456 -51.07874,37.40716 -6.34995,1.85299 -9.95861,5.42023 -10.826,10.70177 -0.86757,5.28151 -3.66717,8.02041 -8.39885,8.21673 -4.73181,0.19629 -7.13422,-0.65779 -7.20723,-2.56221 -0.0792,-2.06315 -2.12443,-3.56787 -6.13555,-4.51414 -3.54724,-0.80658 -5.6381,-3.50156 -6.27256,-8.08494 -0.48195,-4.58973 0.92871,-7.6684 4.23197,-9.23604 2.55213,-1.21857 3.70356,-7.06822 3.45432,-17.54896 -0.0967,-10.48701 -1.49673,-23.06591 -4.19997,-37.73668 -2.4411,-11.82034 -5.51324,-32.11867 -9.2164,-60.89506 l -5.24369,-41.03146 -8.21498,1.0561 c -5.77588,0.87559 -10.78567,3.78566 -15.02941,8.73024 -2.92486,3.45955 -4.99174,5.37328 -6.20064,5.74121 -1.21502,0.20949 -2.93666,-0.83177 -5.16491,-3.12382 -2.06346,-1.98066 -3.201949,-3.76142 -3.415479,-5.34226 -0.21964,-1.73925 0.30565,-3.98642 1.575859,-6.74153 1.96028,-4.69086 4.08521,-7.08387 6.37477,-7.17902 1.98426,-0.0822 4.20074,-2.08158 6.64942,-5.99827 2.296,-3.91 9.67472,-6.83887 22.13615,-8.78662 m 70.20477,18.78499 c -16.14877,-2.50902 -29.10748,-3.56098 -38.87614,-3.15589 -6.41082,0.26612 -10.20543,0.97989 -11.38383,2.14129 -2.05781,2.15197 -2.16229,9.38878 -0.31347,21.71046 0.44528,3.63764 1.84565,12.24263 4.20112,25.81497 4.33236,25.25328 7.41382,43.80271 9.24439,55.64837 2.52622,14.0423 3.34021,25.29437 2.44197,33.75624 l -1.36575,12.21677 12.3636,-0.5129 c 13.58456,-0.56354 28.61719,-11.20139 45.09793,-31.91351 15.45463,-19.55682 22.89636,-42.75513 22.32518,-69.59502 -0.26165,-10.79801 -0.91425,-17.84446 -1.95781,-21.13937 -0.89123,-3.30095 -3.40935,-7.17037 -7.55438,-11.60828 -3.66303,-3.82178 -7.74426,-6.59315 -12.24367,-8.31412 -4.49969,-1.72062 -11.82605,-3.40363 -21.97914,-5.04901 m 156.95711,23.76964 c 28.25637,-4.66911 45.56177,0.0969 51.9163,14.29815 3.81504,7.78963 5.55722,17.33416 5.22656,28.63363 -0.18437,11.13461 -1.59274,22.24045 -4.22514,33.31753 -2.48609,10.91217 -6.44952,21.17027 -11.89027,30.77434 -5.28834,9.59778 -11.20826,16.67845 -17.75975,21.24204 -11.46079,8.10532 -24.01089,11.72559 -37.65031,10.86084 -13.48081,-0.7124 -24.37549,-5.7444 -32.68407,-15.09601 -6.86792,-7.66284 -11.39752,-14.15105 -13.58884,-19.46467 -2.19745,-5.47225 -3.49104,-13.28688 -3.88081,-23.44392 -0.73692,-19.20299 6.01432,-36.49131 20.25373,-51.86501 8.81102,-9.42587 16.4954,-16.34132 23.05313,-20.74634 6.71025,-4.41109 13.78673,-7.24795 21.22947,-8.51058 m 37.72049,20.84791 c -7.10017,-5.74566 -14.28914,-7.83174 -21.56689,-6.25831 -4.08475,1.12332 -9.70184,2.15113 -16.85134,3.08342 -5.3119,1.01527 -9.53702,2.46219 -12.67533,4.34078 -2.99189,1.71378 -6.76537,4.96997 -11.32045,9.76854 -8.66456,9.26106 -14.75861,17.77956 -18.28217,25.55552 -3.52972,7.61743 -5.12403,15.86978 -4.78296,24.75708 0.50546,13.17239 4.81181,23.80272 12.91912,31.89099 8.25983,8.08201 18.65093,11.94274 31.17331,11.58218 11.75295,-0.48757 22.28868,-8.79294 31.60725,-24.91615 9.46492,-16.28818 14.63498,-34.94149 15.51019,-55.96002 0.28764,-8.43647 0.0775,-13.91173 -0.63034,-16.42576 -0.56156,-2.67883 -2.26166,-5.15161 -5.10039,-7.41827 m 97.81459,-76.78008 c 2.4056,-1.05335 8.26687,-1.6939 17.58389,-1.92164 9.31685,-0.22738 15.13837,0.0874 17.46455,0.9445 1.0866,0.43198 2.11833,1.42238 3.09517,2.97123 0.97661,1.54923 1.49237,3.03791 1.5473,4.46604 0.10951,2.85684 -1.10569,5.05317 -3.64559,6.58895 -2.54619,1.37744 -7.54058,2.69733 -14.98314,3.95965 l -6.83213,1.23718 2.04743,41.40249 c 1.46231,30.141 3.12684,53.59736 4.99358,70.36914 1.21376,11.71242 2.18991,19.22231 2.92844,22.5297 0.8849,3.14243 2.06318,3.96781 3.53482,2.47612 2.79648,-2.81822 6.20035,-3.75419 10.21163,-2.80795 4.01108,0.94631 6.08367,3.16518 6.21777,6.65662 0.13385,3.4915 -2.25673,6.92873 -7.17185,10.31173 -4.9214,3.22433 -14.29677,7.90509 -28.12612,14.04223 -7.66881,3.33829 -13.24938,5.31833 -16.74171,5.94008 -3.49243,0.62174 -7.71127,0.24042 -12.65648,-1.14399 -4.47522,-1.08599 -7.57972,-2.30832 -9.31351,-3.667 -1.73385,-1.35866 -2.64339,-3.14892 -2.72862,-5.37076 -0.0914,-2.38054 0.45827,-3.9929 1.64893,-4.83708 1.19061,-0.84415 3.54127,-1.33906 7.05195,-1.48472 5.34222,-0.22162 12.06452,-2.32847 20.16691,-6.32059 l 11.23765,-5.95017 -3.76888,-44.43072 c -2.51264,-29.62037 -4.10086,-53.0799 -4.76462,-70.37865 l -0.97747,-25.47183 -6.56662,2.17989 c -6.49037,2.17686 -12.70585,3.5474 -18.64645,4.11161 -5.94067,0.56452 -10.38541,0.27204 -13.33422,-0.87743 -2.95494,-1.30785 -3.79424,-3.25998 -2.51794,-5.85637 0.84273,-1.94227 7.81244,-5.56948 20.90917,-10.88164 14.30557,-5.67986 21.68429,-8.60874 22.13616,-8.78662 M 614.1654,140.08602 c 0.45826,-3.99269 1.88415,-6.67461 4.27768,-8.04577 2.39338,-1.37072 4.40507,-0.73886 6.03506,1.89553 0.98882,1.86667 2.55688,12.84903 4.70407,32.94712 2.15937,20.41586 3.47713,30.85227 3.95337,31.30921 0.4761,0.45727 4.34395,-0.33901 11.60364,-2.38886 6.9603,-1.87815 12.81551,-2.67738 17.56556,-2.39773 4.90257,0.27363 7.62853,1.59115 8.1779,3.95253 0.38431,2.05064 -1.21851,4.10409 -4.80861,6.16033 -3.59646,1.89786 -10.2302,4.31896 -19.90147,7.26332 l -11.33812,3.33156 2.9176,40.17423 c 1.95713,27.1003 4.36663,50.04889 7.22827,68.84585 1.23859,8.37329 2.08055,14.37867 2.52598,18.01615 0.44527,3.63752 0.88756,7.19567 1.32686,10.67446 0.43312,3.3201 0.51536,5.4626 0.24664,6.42748 -0.26879,0.96487 -0.6199,1.77421 -1.05339,2.42803 -0.28101,0.64748 -0.87331,1.14891 -1.77684,1.50431 -3.2972,1.72634 -6.11161,0.0946 -8.44334,-4.89525 -2.3319,-4.98984 -3.67743,-12.16649 -4.03673,-21.52999 -0.38372,-9.99824 -1.62499,-22.42477 -3.72375,-37.27958 -1.21427,-7.73839 -3.21537,-24.02779 -6.00305,-48.86825 -1.7993,-18.99991 -3.0958,-28.88086 -3.88934,-29.64285 -0.63497,-0.60934 -6.85956,0.52315 -18.67388,3.39746 -9.53695,2.4622 -15.83789,3.59785 -18.90281,3.40695 -3.071,-0.34933 -4.67045,-2.19044 -4.79835,-5.52333 -0.0914,-2.38041 1.9664,-4.5322 6.17322,-6.45536 4.20078,-2.08161 11.67709,-4.45818 22.42908,-7.12976 5.60489,-1.34506 9.29881,-2.69047 11.08176,-4.03624 3.12618,-2.19595 2.78247,-15.13657 -1.03114,-38.82188 -1.80616,-11.21072 -2.42807,-19.4506 -1.86587,-24.71967"
       id="text8280"
       inkscape:connector-curvature="0" />
  </g>
</svg>
