<?xml version="1.0" encoding="UTF-8" standalone="no"?>
<!-- Created with Inkscape (http://www.inkscape.org/) -->

<svg
   xmlns:dc="http://purl.org/dc/elements/1.1/"
   xmlns:cc="http://creativecommons.org/ns#"
   xmlns:rdf="http://www.w3.org/1999/02/22-rdf-syntax-ns#"
   xmlns:svg="http://www.w3.org/2000/svg"
   xmlns="http://www.w3.org/2000/svg"
   xmlns:sodipodi="http://sodipodi.sourceforge.net/DTD/sodipodi-0.dtd"
   xmlns:inkscape="http://www.inkscape.org/namespaces/inkscape"
   width="2400"
   height="300"
   id="svg6253"
   sodipodi:version="0.32"
   inkscape:version="0.92.2 (5c3e80d, 2017-08-06)"
   version="1.0"
   sodipodi:docname="doit-text-full.svg"
   inkscape:output_extension="org.inkscape.output.svg.inkscape"
   inkscape:export-filename="/home/eduardo/work/doit/universal2/img/doit-logo.png"
   inkscape:export-xdpi="16"
   inkscape:export-ydpi="16">
  <defs
     id="defs6255">
    <inkscape:perspective
       sodipodi:type="inkscape:persp3d"
       inkscape:vp_x="0 : 150 : 1"
       inkscape:vp_y="0 : 1000 : 0"
       inkscape:vp_z="800 : 150 : 1"
       inkscape:persp3d-origin="400 : 100 : 1"
       id="perspective2470" />
    <linearGradient
       id="linearGradient7278">
      <stop
         style="stop-color:#ff3232;stop-opacity:1;"
         offset="0"
         id="stop7280" />
      <stop
         style="stop-color:#ffd5d5;stop-opacity:0;"
         offset="1"
         id="stop7282" />
    </linearGradient>
  </defs>
  <sodipodi:namedview
     id="base"
     pagecolor="#ffffff"
     bordercolor="#666666"
     borderopacity="1.0"
     gridtolerance="10000"
     guidetolerance="10"
     objecttolerance="10"
     inkscape:pageopacity="0.0"
     inkscape:pageshadow="2"
     inkscape:zoom="0.1856"
     inkscape:cx="1153.4091"
     inkscape:cy="-92.944027"
     inkscape:document-units="px"
     inkscape:current-layer="layer1"
     width="800px"
     height="300px"
     inkscape:grid-bbox="false"
     inkscape:grid-points="true"
     showgrid="false"
     inkscape:object-nodes="true"
     showguides="false"
     inkscape:guide-bbox="true"
     inkscape:object-paths="false"
     inkscape:window-width="1024"
     inkscape:window-height="678"
     inkscape:window-x="0"
     inkscape:window-y="27"
     inkscape:window-maximized="0">
    <sodipodi:guide
       orientation="vertical"
       position="150"
       id="guide7244"
       inkscape:locked="false" />
    <sodipodi:guide
       orientation="vertical"
       position="230"
       id="guide7246"
       inkscape:locked="false" />
    <sodipodi:guide
       orientation="vertical"
       position="315"
       id="guide7248"
       inkscape:locked="false" />
    <sodipodi:guide
       orientation="vertical"
       position="-94.280904"
       id="guide7250"
       inkscape:locked="false" />
    <inkscape:grid
       id="GridFromPre046Settings"
       type="xygrid"
       originx="0"
       originy="0"
       spacingx="10"
       spacingy="10"
       color="#0000ff"
       empcolor="#0000ff"
       opacity="0.2"
       empopacity="0.4"
       empspacing="5"
       visible="true"
       enabled="true" />
  </sodipodi:namedview>
  <metadata
     id="metadata6258">
    <rdf:RDF>
      <cc:Work
         rdf:about="">
        <dc:format>image/svg+xml</dc:format>
        <dc:type
           rdf:resource="http://purl.org/dc/dcmitype/StillImage" />
        <dc:title></dc:title>
      </cc:Work>
    </rdf:RDF>
  </metadata>
  <g
     inkscape:label="Layer 1"
     inkscape:groupmode="layer"
     id="layer1">
    <path
       style="opacity:1;fill:#ff1e1e;fill-opacity:1;stroke:#000000;stroke-width:0.35095182;stroke-miterlimit:4;stroke-dasharray:none;stroke-opacity:1"
       d="M 78.289282,45.237513 C 30.64305,61.437032 9.5080717,126.15702 31.113014,189.70175 52.717957,253.24649 108.92181,291.67159 156.56805,275.47208 204.21429,259.27256 225.34927,194.55258 203.74432,131.00784 182.13938,67.463105 125.93552,29.037994 78.289282,45.237513 Z M 84.812516,64.42373 C 124.51772,50.92413 171.35426,82.945053 189.35838,135.899 207.36249,188.85295 189.75002,242.78627 150.04482,256.28586 110.33962,269.78546 63.503079,237.76454 45.498963,184.8106 27.49484,131.85664 45.107317,77.923328 84.812516,64.42373 Z m 10.437169,30.697937 c -26.999536,9.179733 -38.97602,45.854393 -26.733221,81.863073 12.242796,36.00869 44.091646,57.78291 71.091186,48.60318 26.99954,-9.17972 38.97602,-45.85438 26.73323,-81.86306 -12.2428,-36.00869 -44.09166,-57.782917 -71.091195,-48.603193 z m 7.085855,20.841033 c 18.37224,-6.24649 40.04781,8.57253 48.3786,33.07518 8.3308,24.50264 0.17989,49.46254 -18.19235,55.70902 -18.37223,6.24649 -40.0478,-8.57254 -48.378597,-33.07518 C 75.8124,147.16907 83.963308,122.20918 102.33554,115.9627 Z m 6.97986,20.52925 c -9.875645,3.35767 -14.257305,16.77529 -9.779244,29.94623 4.478064,13.17093 16.130134,21.13714 26.005784,17.77947 9.87565,-3.35767 14.25731,-16.77529 9.77925,-29.94623 -4.47807,-13.17094 -16.13014,-21.13715 -26.00579,-17.77947 z"
       id="path7236"
       inkscape:connector-curvature="0" />
    <path
       style="font-style:normal;font-weight:bold;font-size:720px;font-family:Purisa;fill:#241c1c;fill-opacity:1;stroke:none;stroke-width:1px;stroke-linecap:butt;stroke-linejoin:miter;stroke-opacity:1"
       d="m 267.45008,79.250166 c 14.08347,-2.021981 24.26263,-3.085225 30.53751,-3.18974 6.41471,-0.255771 13.80622,0.179422 22.17455,1.305586 30.53374,4.038701 50.69573,11.630546 60.48602,22.775558 9.93577,11.1395 13.24331,29.99048 9.92263,56.55297 -2.54478,20.39877 -11.05209,39.57513 -25.52195,57.52913 -14.47595,17.80829 -30.73851,29.26282 -48.78772,34.36366 -6.06513,1.70222 -9.51193,4.97923 -10.34042,9.83105 -0.82865,4.85179 -3.50269,7.36786 -8.02213,7.5482 -4.51958,0.18032 -6.81423,-0.60427 -6.88397,-2.35374 -0.0757,-1.89529 -2.02914,-3.27758 -5.86035,-4.14686 -3.38814,-0.74096 -5.38521,-3.21667 -5.99122,-7.42714 -0.46034,-4.2163 0.88705,-7.04448 4.04215,-8.48458 2.43766,-1.11942 3.53745,-6.49313 3.29939,-16.12114 -0.0924,-9.63378 -1.4296,-21.18923 -4.01159,-34.66637 -2.33161,-10.85861 -5.26595,-29.50544 -8.80302,-55.94053 l -5.00849,-37.693079 -7.84652,0.970179 c -5.51681,0.80435 -10.3019,3.47766 -14.35529,8.01993 -2.79368,3.17809 -4.76785,4.93611 -5.92253,5.27409 -1.16052,0.19246 -2.80494,-0.76409 -4.93325,-2.86965 -1.97091,-1.81951 -3.05833,-3.45538 -3.26228,-4.90761 -0.20979,-1.59774 0.29194,-3.66207 1.50517,-6.193019 1.87236,-4.309208 3.90198,-6.507518 6.08885,-6.594931 1.89526,-0.07546 4.01232,-1.912205 6.35117,-5.510229 2.19302,-3.591879 9.24078,-6.282455 21.14329,-8.071735 m 67.05588,17.256611 c -15.42446,-2.304875 -27.80193,-3.271247 -37.13244,-2.899116 -6.12328,0.244469 -9.74769,0.900164 -10.87323,1.96707 -1.96551,1.976878 -2.06531,8.624889 -0.29941,19.944059 0.42531,3.34168 1.76287,11.24655 4.01268,23.71462 4.13805,23.19862 7.08129,40.23884 8.82976,51.12072 2.41291,12.8998 3.19039,23.23638 2.33244,31.00978 l -1.30449,11.22279 11.80905,-0.47117 c 12.97526,-0.51769 27.33364,-10.29002 43.07516,-29.31698 14.76145,-17.96563 21.86939,-39.27649 21.32384,-63.93265 -0.24992,-9.91946 -0.87325,-16.3926 -1.87,-19.41943 -0.85126,-3.03238 -3.25643,-6.58698 -7.21554,-10.66381 -3.49874,-3.51083 -7.39691,-6.05671 -11.69451,-7.63766 -4.29786,-1.58064 -11.29562,-3.126712 -20.99331,-4.638223 m 149.91713,21.835703 c 26.98899,-4.28922 43.5182,0.0891 49.58771,13.13483 3.64392,7.15585 5.30796,15.92382 4.99213,26.30395 -0.1761,10.22868 -1.5213,20.43093 -4.03563,30.60676 -2.37458,10.02433 -6.16024,19.44782 -11.35696,28.27048 -5.05114,8.81689 -10.70553,15.32147 -16.96317,19.51376 -10.94674,7.44586 -22.93393,10.77158 -35.96158,9.97718 -12.87616,-0.65443 -23.28218,-5.27702 -31.2181,-13.86777 -6.55987,-7.03938 -10.88632,-12.9997 -12.97935,-17.88099 -2.09888,-5.02702 -3.33446,-12.20584 -3.70674,-21.53649 -0.70387,-17.6406 5.74456,-33.52231 19.34529,-47.64518 8.41583,-8.65897 15.75553,-15.01176 22.01913,-19.05838 6.40928,-4.0522 13.16836,-6.65825 20.27727,-7.81815 m 36.02863,19.15168 c -6.78172,-5.27817 -13.64824,-7.19453 -20.59957,-5.74911 -3.90153,1.03192 -9.26668,1.9761 -16.0955,2.83255 -5.07365,0.93266 -9.10925,2.26185 -12.1068,3.9876 -2.8577,1.57435 -6.46193,4.5656 -10.8127,8.97376 -8.27593,8.50756 -14.09665,16.33298 -17.46217,23.47628 -3.3714,6.99765 -4.8942,14.57858 -4.56843,22.7428 0.48279,12.10066 4.596,21.86608 12.33966,29.29629 7.88936,7.42444 17.81439,10.97105 29.7751,10.63983 11.2258,-0.4479 21.28897,-8.07753 30.18958,-22.88893 9.04039,-14.96294 13.97856,-32.0986 14.81451,-51.40702 0.27474,-7.75007 0.0741,-12.77985 -0.60206,-15.08933 -0.53638,-2.46088 -2.16022,-4.73246 -4.87162,-6.81472 m 93.42732,-70.533119 c 2.2977,-0.967644 7.89607,-1.556073 16.7952,-1.765292 8.89896,-0.208871 14.45937,0.08035 16.68121,0.867666 1.03787,0.396824 2.02332,1.306654 2.95635,2.729487 0.9328,1.423174 1.42543,2.790731 1.4779,4.10268 0.10459,2.624396 -1.0561,4.642014 -3.48208,6.052856 -2.43198,1.265373 -7.20236,2.477864 -14.31111,3.637485 l -6.52568,1.136508 1.9556,38.033919 c 1.39672,27.68868 2.98659,49.23659 4.7696,64.6438 1.15932,10.75946 2.09169,17.65834 2.7971,20.69664 0.8452,2.88675 1.97063,3.64498 3.37627,2.27466 2.67104,-2.58893 5.92224,-3.44876 9.75361,-2.5795 3.83116,0.86932 5.81079,2.90766 5.93888,6.11503 0.12785,3.20742 -2.15551,6.365 -6.85017,9.47275 -4.70066,2.962 -13.65552,7.26191 -26.86458,12.89973 -7.32485,3.06669 -12.65512,4.88562 -15.9908,5.45678 -3.33579,0.57116 -7.3654,0.22086 -12.0888,-1.0509 -4.2745,-0.99764 -7.23976,-2.12051 -8.89578,-3.36865 -1.65608,-1.24812 -2.52482,-2.89272 -2.60623,-4.93379 -0.0873,-2.18685 0.43771,-3.66803 1.57498,-4.44353 1.1372,-0.77547 3.38242,-1.23011 6.73564,-1.36392 5.10261,-0.20358 11.5234,-2.13902 19.26237,-5.80634 l 10.73361,-5.46605 -3.59984,-40.81576 c -2.39995,-27.21041 -3.91692,-48.76123 -4.55092,-64.65253 l -0.93362,-23.399399 -6.27209,2.002526 c -6.19925,1.999767 -12.13595,3.258798 -17.8101,3.777093 -5.67422,0.518591 -9.9196,0.249912 -12.73614,-0.806038 -2.8224,-1.201443 -3.62406,-2.994742 -2.405,-5.379896 0.80492,-1.784233 7.46203,-5.116324 19.97133,-9.996281 13.66392,-5.217745 20.71168,-7.908323 21.14329,-8.071734 M 723.77838,33.225528 c 0.4377,-3.667831 1.79964,-6.131544 4.08581,-7.391147 2.28603,-1.259187 4.20749,-0.678751 5.76437,1.741312 0.94447,1.71479 2.44219,11.803604 4.49308,30.266473 2.06251,18.7548 3.32117,28.342073 3.77605,28.761846 0.45474,0.420066 4.14911,-0.31143 11.08318,-2.194487 6.64811,-1.72534 12.24069,-2.459557 16.77769,-2.202664 4.68268,0.251378 7.28638,1.461697 7.81111,3.630956 0.36707,1.883791 -1.16386,3.770159 -4.59294,5.659111 -3.43514,1.743449 -9.77134,3.967561 -19.00883,6.672364 l -10.82958,3.060508 2.78674,36.90558 c 1.86935,24.89537 4.17078,45.97683 6.90406,63.24443 1.18304,7.69203 1.98724,13.2088 2.41269,16.55033 0.4253,3.34157 0.84775,6.61022 1.26735,9.80597 0.41369,3.04997 0.49224,5.01815 0.23557,5.90453 -0.25673,0.88637 -0.59209,1.62986 -1.00613,2.23048 -0.26842,0.5948 -0.83414,1.05543 -1.69715,1.38192 -3.14932,1.58588 -5.83749,0.0869 -8.06464,-4.49697 -2.2273,-4.58386 -3.51248,-11.17661 -3.85567,-19.77827 -0.3665,-9.18478 -1.5521,-20.60026 -3.55673,-34.24645 -1.1598,-7.10878 -3.07114,-22.07285 -5.73379,-44.89225 -1.7186,-17.45405 -2.95695,-26.53106 -3.71489,-27.23106 -0.60649,-0.55976 -6.55189,0.48058 -17.83631,3.12104 -9.10919,2.26187 -15.12751,3.30512 -18.05496,3.12976 -2.93326,-0.32091 -4.46097,-2.01223 -4.58313,-5.07395 -0.0873,-2.18673 1.8782,-4.16345 5.89634,-5.93015 4.01235,-1.912233 11.15333,-4.095447 21.42306,-6.549659 5.3535,-1.235624 8.88173,-2.471568 10.58472,-3.70784 2.98596,-2.017292 2.65766,-13.905039 -0.98489,-35.66327 C 723.8354,45.635373 723.24139,38.0659 723.77838,33.225528"
       id="text8280"
       inkscape:connector-curvature="0" />
    <text
       xml:space="preserve"
       style="font-style:normal;font-weight:normal;line-height:0%;font-family:'Bitstream Vera Sans';fill:#000000;fill-opacity:1;stroke:none;stroke-width:1px;stroke-linecap:butt;stroke-linejoin:miter;stroke-opacity:1"
       x="762.13989"
       y="171.60493"
       id="text2472"><tspan
         sodipodi:role="line"
         id="tspan2474"
         x="762.13989"
         y="171.60493"
         style="font-size:40px;line-height:1.25"> </tspan></text>
    <flowRoot
       xml:space="preserve"
       id="flowRoot2476"
       style="font-style:normal;font-variant:normal;font-weight:300;font-stretch:normal;line-height:0.01%;font-family:Purisa;-inkscape-font-specification:'Purisa Light';fill:#000000;fill-opacity:1;stroke:none;stroke-width:1px;stroke-linecap:butt;stroke-linejoin:miter;stroke-opacity:1"
       transform="translate(933.00321,430.72352)"><flowRegion
         id="flowRegion2478"><rect
           id="rect2480"
           width="1524.2798"
           height="186.00822"
           x="0"
           y="-315.63785"
           style="font-style:normal;font-variant:normal;font-weight:300;font-stretch:normal;font-size:150px;font-family:Purisa;-inkscape-font-specification:'Purisa Light'" /></flowRegion><flowPara
         id="flowPara2484"
         style="font-size:150px;line-height:1.25">Automation Tool</flowPara></flowRoot>    <flowRoot
       xml:space="preserve"
       id="flowRoot2488"
       style="font-style:normal;font-weight:normal;line-height:0.01%;font-family:'Bitstream Vera Sans';fill:#000000;fill-opacity:1;stroke:none;stroke-width:1px;stroke-linecap:butt;stroke-linejoin:miter;stroke-opacity:1"><flowRegion
         id="flowRegion2490"><rect
           id="rect2492"
           width="42.798355"
           height="102.05761"
           x="-209.0535"
           y="-208.64197" /></flowRegion><flowPara
         id="flowPara2494"
         style="font-size:40px;line-height:1.25"> </flowPara></flowRoot>  </g>
</svg>
